<?xml version="1.0" encoding="utf-8"?>
<!-- Generator: Adobe Illustrator 25.4.1, SVG Export Plug-In . SVG Version: 6.00 Build 0)  -->
<svg version="1.1" id="Layer_1" xmlns="http://www.w3.org/2000/svg" xmlns:xlink="http://www.w3.org/1999/xlink" x="0px" y="0px"
	 viewBox="0 0 678.7 161.4" style="enable-background:new 0 0 678.7 161.4;" xml:space="preserve">
<style type="text/css">
	.st0{fill:#E10F1A;}
	.st1{fill:#010202;}
</style>
<path class="st0" d="M197.3,26.9H32.4c-5.5,0-10,4.5-10,10v104.5c0,5.6,4.5,10.1,10,10.1h164.9c5.6,0,10.1-4.5,10.1-10.1V36.9
	C207.4,31.4,202.9,26.9,197.3,26.9z M66.8,137.7H39.6c-1.8,0-3.3-1.5-3.3-3.3V89.3c0-3.3,4.4-4.5,6.1-1.7l27.2,45.1
	C70.9,134.9,69.3,137.7,66.8,137.7z M74.8,97.5L44.1,45.6c-1.3-2.2,0.3-5,2.8-5h61.5c2.5,0,4.1,2.8,2.8,5L80.5,97.5
	C79.2,99.7,76.1,99.7,74.8,97.5z M118.1,134.4c0,1.8-1.5,3.3-3.3,3.3H87.7c-2.5,0-4.1-2.8-2.8-5L112,87.6c1.7-2.8,6.1-1.7,6.1,1.7
	V134.4z M172.3,137.7h-32.1c-1.9,0-3.5-1.6-3.5-3.5V98.8c0-1.9,1.5-3.5,3.5-3.5h32.1c11.7,0,21.2,9.5,21.2,21.2
	C193.5,128.2,184,137.7,172.3,137.7z M172.3,83h-32.1c-1.9,0-3.5-1.5-3.5-3.5V44.2c0-1.9,1.5-3.5,3.5-3.5h32.1
	c11.7,0,21.2,9.5,21.2,21.2C193.5,73.5,184,83,172.3,83z"/>
<path class="st1" d="M243.6,132.2c2.5-0.8,4.7-3.3,4.7-7.1c0-4.5-3.2-8.1-10.1-8.1h-12.4v32.6h12.7c6.1,0,10.9-3.3,10.9-9.5
	C249.4,135.2,245.9,132.9,243.6,132.2z M230,120.4h8.2c3.9,0,6,2.1,6,5c0,3.2-1.8,5.1-6.6,5.1H230V120.4z M238.1,146.1H230v-12h7.3
	c5.6,0,7.9,2.4,7.9,6C245.1,144.1,242.2,146.1,238.1,146.1z"/>
<path class="st1" d="M307,116.5c-9.9,0-15.3,7.5-15.3,16.8c0,9.3,5.4,16.7,14.9,16.7c10.3,0,15.2-8,15.2-16.9
	C321.9,123.4,316.1,116.5,307,116.5z M306.8,146.5c-7.1,0-10.7-6.3-10.7-13.3c0-7,3.3-13,10.7-13c7.2,0,10.7,6,10.7,13.1
	C317.5,140.2,314.4,146.5,306.8,146.5z"/>
<path class="st1" d="M379.6,116.5c-9.9,0-15.3,7.5-15.3,16.8c0,9.3,5.4,16.7,14.9,16.7c10.3,0,15.3-8,15.3-16.9
	C394.5,123.4,388.8,116.5,379.6,116.5z M379.5,146.5c-7.1,0-10.7-6.3-10.7-13.3c0-7,3.3-13,10.7-13c7.2,0,10.7,6,10.7,13.1
	C390.1,140.2,387.1,146.5,379.5,146.5z"/>
<path class="st1" d="M449.6,130.6c-5.7-1.4-7.6-2.6-7.6-5.7c0-3.1,2.3-5,6.3-5c4.8,0,6.6,2.4,7.2,5.3h4.3c-0.4-4.3-3.6-8.7-11.3-8.7
	c-7.3,0-10.8,4-10.8,8.8c0,4.6,2.7,7.2,10.3,9.1c6.6,1.6,8.2,3.5,8.2,6.8c0,3.1-2,5.5-7.2,5.5c-4.8,0-7.5-2.1-8.3-6.1h-4.3
	c0.7,5,4.2,9.5,12.4,9.5c7.9,0,11.8-4.1,11.8-9.4C460.5,136.5,458.9,132.8,449.6,130.6z"/>
<polygon class="st1" points="500.5,120.6 511,120.6 511,149.6 515.3,149.6 515.3,120.6 525.9,120.6 525.9,117 500.5,117 "/>
<polygon class="st1" points="572.1,134.3 588.4,134.3 588.4,130.7 572.1,130.7 572.1,120.6 589.2,120.6 589.2,117 568,117 
	568,149.6 589.4,149.6 590,146 572.1,146 "/>
<path class="st1" d="M655.7,143.1v-1.4c0-5.6-2.3-7.6-5-8.4c3.2-0.9,5.6-3.5,5.6-7.7c0-5.1-3.6-8.7-10.3-8.7h-12.7v32.6h4.2v-14.4
	h6.8c5.9,0,7.2,2,7.2,6.7v0.7c0,3-0.1,5.6,0.5,7h4.1C655.6,148.2,655.7,145.3,655.7,143.1z M644.7,131.6h-7.1v-11.1h7.6
	c4.5,0,6.8,2,6.8,5.5C651.9,129.7,649.7,131.6,644.7,131.6z"/>
<path class="st0" d="M456.9,96h47.5c2,0,3.2-3,2.2-5.3l-23.8-55.4c-1-2.3-3.4-2.3-4.4,0l-23.8,55.4C453.7,93,454.9,96,456.9,96z"/>
<path class="st0" d="M479.8,27.5c0.4,0.7,1.4,0.7,1.7,0l9.5-16.1c0.4-0.7-0.1-1.5-0.9-1.5h-19c-0.8,0-1.3,0.9-0.9,1.5L479.8,27.5z"
	/>
<path class="st0" d="M282.8,96h13.9V28h-20.6c-5.8,17.6-13.5,41.8-15.1,50.6h-0.1c-2.1-10.1-8.2-32.6-13.6-50.6h-21.4v68h13.1V71.5
	c0-11.7-0.3-25.7-0.9-33.7h0.5c3,13.5,10.3,39.7,15.3,58.2h12.3c6.6-21.3,13.6-44.3,16.8-58h0.5c-0.3,7.7-0.5,20.7-0.5,32.3V96z"/>
<polygon class="st0" points="443.7,28 387.9,28 387.9,39.8 408.7,39.8 408.7,96 423.1,96 423.1,39.8 443.7,39.8 "/>
<path class="st0" d="M643.2,28v20.5c0,11.2,0,22.9,0.7,30.1h-0.2c-3.2-7.4-19.2-35.3-27.7-50.6h-17.9v68h13.1v-21
	c0-12.2-0.2-26-0.6-32.1h0.2c3.4,7.8,21.1,39.7,28.5,53.1h16.9V28H643.2z"/>
<path class="st0" d="M580.2,28H525c-4.1,0-7.4,3.3-7.4,7.4v55.2c0,4.1,3.3,7.4,7.4,7.4h55.2c4.1,0,7.4-3.3,7.4-7.4V35.4
	C587.5,31.3,584.2,28,580.2,28z M568.4,52.1L558,79c-0.4,1.1-2,1.4-2.8,0.6l-20.3-20.4c-0.8-0.8-0.3-2.3,0.9-2.5l30.6-6.5
	C567.8,49.9,568.8,51,568.4,52.1z"/>
<path class="st0" d="M369.9,28h-55.2c-4.1,0-7.4,3.3-7.4,7.4v55.2c0,4.1,3.3,7.4,7.4,7.4h55.2c4.1,0,7.4-3.3,7.4-7.4V35.4
	C377.3,31.3,374,28,369.9,28z M358.1,52.1L347.8,79c-0.4,1.1-2,1.4-2.8,0.6l-20.3-20.4c-0.8-0.8-0.3-2.3,1-2.5l30.6-6.5
	C357.5,49.9,358.6,51,358.1,52.1z"/>
</svg>
