<?xml version="1.0" encoding="utf-8"?>
<!-- Generator: Adobe Illustrator 25.4.1, SVG Export Plug-In . SVG Version: 6.00 Build 0)  -->
<svg version="1.1" id="Layer_1" xmlns="http://www.w3.org/2000/svg" xmlns:xlink="http://www.w3.org/1999/xlink" x="0px" y="0px"
	 viewBox="0 0 233.9 161.4" style="enable-background:new 0 0 233.9 161.4;" xml:space="preserve">
<style type="text/css">
	.st0{fill:#FFFFFF;}
</style>
<path class="st0" d="M199.4,18.4H34.5c-5.5,0-10,4.5-10,10v104.5c0,5.6,4.5,10.1,10,10.1h164.9c5.6,0,10.1-4.5,10.1-10.1V28.4
	C209.4,22.9,204.9,18.4,199.4,18.4z M68.8,129.2H41.7c-1.8,0-3.3-1.5-3.3-3.3V80.8c0-3.3,4.4-4.5,6.1-1.7l27.2,45.1
	C73,126.4,71.4,129.2,68.8,129.2z M76.9,89L46.1,37.1c-1.3-2.2,0.3-5,2.8-5h61.5c2.5,0,4.1,2.8,2.8,5L82.5,89
	C81.3,91.2,78.1,91.2,76.9,89z M120.2,125.9c0,1.8-1.5,3.3-3.3,3.3H89.7c-2.5,0-4.1-2.8-2.8-5l27.2-45.1c1.7-2.8,6.1-1.7,6.1,1.7
	V125.9z M174.3,129.2h-32.1c-1.9,0-3.5-1.6-3.5-3.5V90.3c0-1.9,1.5-3.5,3.5-3.5h32.1c11.7,0,21.2,9.5,21.2,21.2
	C195.5,119.7,186,129.2,174.3,129.2z M174.3,74.5h-32.1c-1.9,0-3.5-1.5-3.5-3.5V35.7c0-1.9,1.5-3.5,3.5-3.5h32.1
	c11.7,0,21.2,9.5,21.2,21.2C195.5,65,186,74.5,174.3,74.5z"/>
</svg>
